<?xml version="1.0"?>
<svg class="block" width="24" height="34" viewBox="0 0 24 34" fill="none"
     xmlns="http://www.w3.org/2000/svg">
    <g filter="url(#filter0_d)">
        <path
                d="M1 2C1 0.895431 1.89543 0 3 0H21C22.1046 0 23 0.895431 23 2V30C23 31.1046 22.1046 32 21 32H3C1.89543 32 1 31.1046 1 30V2Z"
                fill="#F3F3F3"/>
    </g>
    <g opacity="0.5">
        <path fill-rule="evenodd" clip-rule="evenodd"
              d="M3 5H21V7H3V5ZM4 11H20V12H4V11ZM20 20H4V21H20V20ZM4 13H20V14H4V13ZM20 22H4V23H20V22ZM4 15H20V16H4V15ZM20 24H4V25H20V24ZM4 17H16V18H4V17ZM8 26H4V27H8V26Z"
              fill="#C6C6C6"/>
    </g>
    <defs>
        <filter id="filter0_d" x="0" y="0" width="24" height="34" filterUnits="userSpaceOnUse"
                color-interpolation-filters="sRGB">
            <feFlood flood-opacity="0" result="BackgroundImageFix"/>
            <feColorMatrix in="SourceAlpha" type="matrix" values="0 0 0 0 0 0 0 0 0 0 0 0 0 0 0 0 0 0 127 0"
                           result="hardAlpha"/>
            <feOffset dy="1"/>
            <feGaussianBlur stdDeviation="0.5"/>
            <feComposite in2="hardAlpha" operator="out"/>
            <feColorMatrix type="matrix" values="0 0 0 0 0 0 0 0 0 0 0 0 0 0 0 0 0 0 0.25 0"/>
            <feBlend mode="normal" in2="BackgroundImageFix" result="effect1_dropShadow"/>
            <feBlend mode="normal" in="SourceGraphic" in2="effect1_dropShadow" result="shape"/>
        </filter>
    </defs>
</svg>
