<?xml version="1.0"?>
<svg width="128" height="24" viewBox="0 0 128 24" fill="none"
     xmlns="http://www.w3.org/2000/svg">
    <rect width="128" height="24" rx="5" fill="#FF5959"/>
    <path
            d="M16.6667 6.00002H13.88C13.6 5.22669 12.8667 4.66669 12 4.66669C11.1333 4.66669 10.4 5.22669 10.12 6.00002H7.33333C6.6 6.00002 6 6.60002 6 7.33335V16.6667C6 17.4 6.6 18 7.33333 18H16.6667C17.4 18 18 17.4 18 16.6667V7.33335C18 6.60002 17.4 6.00002 16.6667 6.00002ZM12 6.00002C12.3667 6.00002 12.6667 6.30002 12.6667 6.66669C12.6667 7.03335 12.3667 7.33335 12 7.33335C11.6333 7.33335 11.3333 7.03335 11.3333 6.66669C11.3333 6.30002 11.6333 6.00002 12 6.00002ZM12 8.66669C13.1067 8.66669 14 9.56002 14 10.6667C14 11.7734 13.1067 12.6667 12 12.6667C10.8933 12.6667 10 11.7734 10 10.6667C10 9.56002 10.8933 8.66669 12 8.66669ZM16 16.6667H8V15.7334C8 14.4 10.6667 13.6667 12 13.6667C13.3333 13.6667 16 14.4 16 15.7334V16.6667Z"
            fill="white"/>
    <path
            d="M32.15 6.2V16H29.896V8.048H25.472V16H23.218V6.2H32.15ZM38.1493 8.356C38.8493 8.356 39.484 8.51933 40.0533 8.846C40.632 9.16333 41.0847 9.616 41.4113 10.204C41.738 10.7827 41.9013 11.4593 41.9013 12.234C41.9013 13.0087 41.738 13.69 41.4113 14.278C41.0847 14.8567 40.632 15.3093 40.0533 15.636C39.484 15.9533 38.8493 16.112 38.1493 16.112C37.188 16.112 36.432 15.8087 35.8813 15.202V18.716H33.6973V8.468H35.7833V9.336C36.3247 8.68267 37.1133 8.356 38.1493 8.356ZM37.7713 14.32C38.3313 14.32 38.7887 14.1333 39.1433 13.76C39.5073 13.3773 39.6893 12.8687 39.6893 12.234C39.6893 11.5993 39.5073 11.0953 39.1433 10.722C38.7887 10.3393 38.3313 10.148 37.7713 10.148C37.2113 10.148 36.7493 10.3393 36.3853 10.722C36.0307 11.0953 35.8533 11.5993 35.8533 12.234C35.8533 12.8687 36.0307 13.3773 36.3853 13.76C36.7493 14.1333 37.2113 14.32 37.7713 14.32ZM50.054 12.262C50.054 12.29 50.04 12.486 50.012 12.85H44.314C44.4167 13.3167 44.6594 13.6853 45.042 13.956C45.4247 14.2267 45.9007 14.362 46.47 14.362C46.862 14.362 47.2074 14.306 47.506 14.194C47.814 14.0727 48.0987 13.886 48.36 13.634L49.522 14.894C48.8127 15.706 47.7767 16.112 46.414 16.112C45.5647 16.112 44.8134 15.9487 44.16 15.622C43.5067 15.286 43.0027 14.824 42.648 14.236C42.2934 13.648 42.116 12.9807 42.116 12.234C42.116 11.4967 42.2887 10.834 42.634 10.246C42.9887 9.64867 43.4694 9.18667 44.076 8.86C44.692 8.524 45.378 8.356 46.134 8.356C46.8714 8.356 47.5387 8.51467 48.136 8.832C48.7334 9.14933 49.2 9.60667 49.536 10.204C49.8814 10.792 50.054 11.478 50.054 12.262ZM46.148 10.008C45.6534 10.008 45.238 10.148 44.902 10.428C44.566 10.708 44.3607 11.0907 44.286 11.576H47.996C47.9214 11.1 47.716 10.722 47.38 10.442C47.044 10.1527 46.6334 10.008 46.148 10.008ZM59.4018 14.208V17.624H57.3718V16H52.0798V17.624H50.0498V14.208H50.3578C50.8244 14.1987 51.1464 13.9233 51.3238 13.382C51.5011 12.8407 51.6131 12.0707 51.6598 11.072L51.7578 8.468H58.3238V14.208H59.4018ZM53.6338 11.226C53.6058 11.9913 53.5451 12.6167 53.4518 13.102C53.3678 13.5873 53.2044 13.956 52.9618 14.208H56.1398V10.26H53.6758L53.6338 11.226ZM63.6602 16.112C62.8575 16.112 62.1342 15.9487 61.4902 15.622C60.8555 15.286 60.3562 14.824 59.9922 14.236C59.6375 13.648 59.4602 12.9807 59.4602 12.234C59.4602 11.4873 59.6375 10.82 59.9922 10.232C60.3562 9.644 60.8555 9.18667 61.4902 8.86C62.1342 8.524 62.8575 8.356 63.6602 8.356C64.4535 8.356 65.1442 8.524 65.7322 8.86C66.3295 9.18667 66.7635 9.658 67.0342 10.274L65.3402 11.184C64.9482 10.4933 64.3835 10.148 63.6462 10.148C63.0768 10.148 62.6055 10.3347 62.2322 10.708C61.8588 11.0813 61.6722 11.59 61.6722 12.234C61.6722 12.878 61.8588 13.3867 62.2322 13.76C62.6055 14.1333 63.0768 14.32 63.6462 14.32C64.3928 14.32 64.9575 13.9747 65.3402 13.284L67.0342 14.208C66.7635 14.8053 66.3295 15.272 65.7322 15.608C65.1442 15.944 64.4535 16.112 63.6602 16.112ZM74.8876 12.262C74.8876 12.29 74.8736 12.486 74.8456 12.85H69.1476C69.2503 13.3167 69.493 13.6853 69.8756 13.956C70.2583 14.2267 70.7343 14.362 71.3036 14.362C71.6956 14.362 72.041 14.306 72.3396 14.194C72.6476 14.0727 72.9323 13.886 73.1936 13.634L74.3556 14.894C73.6463 15.706 72.6103 16.112 71.2476 16.112C70.3983 16.112 69.647 15.9487 68.9936 15.622C68.3403 15.286 67.8363 14.824 67.4816 14.236C67.127 13.648 66.9496 12.9807 66.9496 12.234C66.9496 11.4967 67.1223 10.834 67.4676 10.246C67.8223 9.64867 68.303 9.18667 68.9096 8.86C69.5256 8.524 70.2116 8.356 70.9676 8.356C71.705 8.356 72.3723 8.51467 72.9696 8.832C73.567 9.14933 74.0336 9.60667 74.3696 10.204C74.715 10.792 74.8876 11.478 74.8876 12.262ZM70.9816 10.008C70.487 10.008 70.0716 10.148 69.7356 10.428C69.3996 10.708 69.1943 11.0907 69.1196 11.576H72.8296C72.755 11.1 72.5496 10.722 72.2136 10.442C71.8776 10.1527 71.467 10.008 70.9816 10.008ZM84.2354 14.208V17.624H82.2054V16H76.9134V17.624H74.8834V14.208H75.1914C75.658 14.1987 75.98 13.9233 76.1574 13.382C76.3347 12.8407 76.4467 12.0707 76.4934 11.072L76.5914 8.468H83.1574V14.208H84.2354ZM78.4674 11.226C78.4394 11.9913 78.3787 12.6167 78.2854 13.102C78.2014 13.5873 78.038 13.956 77.7954 14.208H80.9734V10.26H78.5094L78.4674 11.226ZM87.8358 8.356C89.0024 8.356 89.8984 8.636 90.5238 9.196C91.1491 9.74667 91.4618 10.582 91.4618 11.702V16H89.4178V15.062C89.0071 15.762 88.2418 16.112 87.1218 16.112C86.5431 16.112 86.0391 16.014 85.6098 15.818C85.1898 15.622 84.8678 15.3513 84.6438 15.006C84.4198 14.6607 84.3078 14.2687 84.3078 13.83C84.3078 13.13 84.5691 12.5793 85.0918 12.178C85.6238 11.7767 86.4404 11.576 87.5418 11.576H89.2778C89.2778 11.1 89.1331 10.736 88.8438 10.484C88.5544 10.2227 88.1204 10.092 87.5418 10.092C87.1404 10.092 86.7438 10.1573 86.3518 10.288C85.9691 10.4093 85.6424 10.5773 85.3718 10.792L84.5878 9.266C84.9984 8.97667 85.4884 8.75267 86.0578 8.594C86.6364 8.43533 87.2291 8.356 87.8358 8.356ZM87.6678 14.642C88.0411 14.642 88.3724 14.558 88.6618 14.39C88.9511 14.2127 89.1564 13.956 89.2778 13.62V12.85H87.7798C86.8838 12.85 86.4358 13.144 86.4358 13.732C86.4358 14.012 86.5431 14.236 86.7578 14.404C86.9818 14.5627 87.2851 14.642 87.6678 14.642ZM98.987 10.26H96.439V16H94.269V10.26H91.721V8.468H98.987V10.26ZM106.459 12.262C106.459 12.29 106.445 12.486 106.417 12.85H100.719C100.821 13.3167 101.064 13.6853 101.447 13.956C101.829 14.2267 102.305 14.362 102.875 14.362C103.267 14.362 103.612 14.306 103.911 14.194C104.219 14.0727 104.503 13.886 104.765 13.634L105.927 14.894C105.217 15.706 104.181 16.112 102.819 16.112C101.969 16.112 101.218 15.9487 100.565 15.622C99.9114 15.286 99.4074 14.824 99.0527 14.236C98.698 13.648 98.5207 12.9807 98.5207 12.234C98.5207 11.4967 98.6934 10.834 99.0387 10.246C99.3934 9.64867 99.874 9.18667 100.481 8.86C101.097 8.524 101.783 8.356 102.539 8.356C103.276 8.356 103.943 8.51467 104.541 8.832C105.138 9.14933 105.605 9.60667 105.941 10.204C106.286 10.792 106.459 11.478 106.459 12.262ZM102.553 10.008C102.058 10.008 101.643 10.148 101.307 10.428C100.971 10.708 100.765 11.0907 100.691 11.576H104.401C104.326 11.1 104.121 10.722 103.785 10.442C103.449 10.1527 103.038 10.008 102.553 10.008ZM114.588 8.468V16H112.404V10.26H110.024L109.954 11.59C109.917 12.5793 109.824 13.4007 109.674 14.054C109.525 14.7073 109.282 15.2207 108.946 15.594C108.61 15.9673 108.144 16.154 107.546 16.154C107.229 16.154 106.851 16.098 106.412 15.986L106.524 14.194C106.674 14.2127 106.781 14.222 106.846 14.222C107.173 14.222 107.416 14.1053 107.574 13.872C107.742 13.6293 107.854 13.326 107.91 12.962C107.966 12.5887 108.008 12.0987 108.036 11.492L108.148 8.468H114.588ZM120.063 10.876C121.043 10.8853 121.794 11.1093 122.317 11.548C122.839 11.9773 123.101 12.5887 123.101 13.382C123.101 14.2127 122.807 14.8613 122.219 15.328C121.64 15.7853 120.823 16.014 119.769 16.014L115.989 16V8.468H118.159V10.876H120.063ZM119.573 14.46C119.993 14.4693 120.315 14.3807 120.539 14.194C120.763 14.0073 120.875 13.7273 120.875 13.354C120.875 12.99 120.763 12.724 120.539 12.556C120.324 12.388 120.002 12.2993 119.573 12.29L118.159 12.276V14.46H119.573Z"
            fill="white"/>
</svg>
