<?xml version="1.0"?>
<svg width="95" height="24" viewBox="0 0 95 24" fill="none"
     xmlns="http://www.w3.org/2000/svg">
    <rect x="1" y="1" width="93" height="22" rx="3" fill="white" stroke="#303030"
          stroke-width="2"/>
    <path
            d="M16.0739 17.168C15.0565 17.168 14.1372 16.9487 13.3159 16.51C12.5039 16.0713 11.8645 15.4693 11.3979 14.704C10.9405 13.9293 10.7119 13.0613 10.7119 12.1C10.7119 11.1387 10.9405 10.2753 11.3979 9.51C11.8645 8.73533 12.5039 8.12867 13.3159 7.69C14.1372 7.25133 15.0565 7.032 16.0739 7.032C17.0912 7.032 18.0059 7.25133 18.8179 7.69C19.6299 8.12867 20.2692 8.73533 20.7359 9.51C21.2025 10.2753 21.4359 11.1387 21.4359 12.1C21.4359 13.0613 21.2025 13.9293 20.7359 14.704C20.2692 15.4693 19.6299 16.0713 18.8179 16.51C18.0059 16.9487 17.0912 17.168 16.0739 17.168ZM16.0739 15.236C16.6525 15.236 17.1752 15.1053 17.6419 14.844C18.1085 14.5733 18.4725 14.2 18.7339 13.724C19.0045 13.248 19.1399 12.7067 19.1399 12.1C19.1399 11.4933 19.0045 10.952 18.7339 10.476C18.4725 10 18.1085 9.63133 17.6419 9.37C17.1752 9.09933 16.6525 8.964 16.0739 8.964C15.4952 8.964 14.9725 9.09933 14.5059 9.37C14.0392 9.63133 13.6705 10 13.3999 10.476C13.1385 10.952 13.0079 11.4933 13.0079 12.1C13.0079 12.7067 13.1385 13.248 13.3999 13.724C13.6705 14.2 14.0392 14.5733 14.5059 14.844C14.9725 15.1053 15.4952 15.236 16.0739 15.236ZM29.805 9.468V17H27.621V11.26H24.485V17H22.315V9.468H29.805ZM35.161 11.876C36.141 11.8853 36.883 12.1047 37.387 12.534C37.891 12.9633 38.143 13.5793 38.143 14.382C38.143 15.222 37.8584 15.8707 37.289 16.328C36.7197 16.7853 35.9124 17.014 34.867 17.014L31.199 17V9.468H33.369V11.876H35.161ZM38.955 9.468H41.125V17H38.955V9.468ZM34.671 15.46C35.091 15.4693 35.413 15.3807 35.637 15.194C35.861 15.0073 35.973 14.7273 35.973 14.354C35.973 13.99 35.861 13.724 35.637 13.556C35.4224 13.388 35.1004 13.2993 34.671 13.29L33.369 13.276V15.46H34.671ZM48.8583 11.26H46.3103V17H44.1403V11.26H41.5923V9.468H48.8583V11.26ZM59.4053 15.152V17H51.9993V15.53L55.7793 11.96C56.1806 11.5773 56.4513 11.2507 56.5913 10.98C56.7313 10.7 56.8013 10.4247 56.8013 10.154C56.8013 9.762 56.666 9.46333 56.3953 9.258C56.134 9.04333 55.7466 8.936 55.2333 8.936C54.804 8.936 54.4166 9.02 54.0713 9.188C53.726 9.34667 53.4366 9.58933 53.2033 9.916L51.5513 8.852C51.934 8.28267 52.4613 7.83933 53.1333 7.522C53.8053 7.19533 54.5753 7.032 55.4433 7.032C56.1713 7.032 56.806 7.15333 57.3473 7.396C57.898 7.62933 58.3226 7.96533 58.6213 8.404C58.9293 8.83333 59.0833 9.342 59.0833 9.93C59.0833 10.462 58.9713 10.9613 58.7473 11.428C58.5233 11.8947 58.0893 12.4267 57.4453 13.024L55.1913 15.152H59.4053ZM63.8138 17.168C63.0018 17.168 62.2784 16.9673 61.6438 16.566C61.0091 16.1647 60.5098 15.586 60.1458 14.83C59.7911 14.0647 59.6138 13.1547 59.6138 12.1C59.6138 11.0453 59.7911 10.14 60.1458 9.384C60.5098 8.61867 61.0091 8.03533 61.6438 7.634C62.2784 7.23267 63.0018 7.032 63.8138 7.032C64.6258 7.032 65.3491 7.23267 65.9838 7.634C66.6184 8.03533 67.1131 8.61867 67.4678 9.384C67.8318 10.14 68.0138 11.0453 68.0138 12.1C68.0138 13.1547 67.8318 14.0647 67.4678 14.83C67.1131 15.586 66.6184 16.1647 65.9838 16.566C65.3491 16.9673 64.6258 17.168 63.8138 17.168ZM63.8138 15.25C64.4111 15.25 64.8778 14.9933 65.2138 14.48C65.5591 13.9667 65.7318 13.1733 65.7318 12.1C65.7318 11.0267 65.5591 10.2333 65.2138 9.72C64.8778 9.20667 64.4111 8.95 63.8138 8.95C63.2258 8.95 62.7591 9.20667 62.4138 9.72C62.0778 10.2333 61.9098 11.0267 61.9098 12.1C61.9098 13.1733 62.0778 13.9667 62.4138 14.48C62.7591 14.9933 63.2258 15.25 63.8138 15.25ZM75.6557 15.152V17H68.2497V15.53L72.0297 11.96C72.431 11.5773 72.7017 11.2507 72.8417 10.98C72.9817 10.7 73.0517 10.4247 73.0517 10.154C73.0517 9.762 72.9164 9.46333 72.6457 9.258C72.3844 9.04333 71.997 8.936 71.4837 8.936C71.0544 8.936 70.667 9.02 70.3217 9.188C69.9764 9.34667 69.687 9.58933 69.4537 9.916L67.8017 8.852C68.1844 8.28267 68.7117 7.83933 69.3837 7.522C70.0557 7.19533 70.8257 7.032 71.6937 7.032C72.4217 7.032 73.0564 7.15333 73.5977 7.396C74.1484 7.62933 74.573 7.96533 74.8717 8.404C75.1797 8.83333 75.3337 9.342 75.3337 9.93C75.3337 10.462 75.2217 10.9613 74.9977 11.428C74.7737 11.8947 74.3397 12.4267 73.6957 13.024L71.4417 15.152H75.6557ZM80.0642 17.168C79.2522 17.168 78.5288 16.9673 77.8942 16.566C77.2595 16.1647 76.7602 15.586 76.3962 14.83C76.0415 14.0647 75.8642 13.1547 75.8642 12.1C75.8642 11.0453 76.0415 10.14 76.3962 9.384C76.7602 8.61867 77.2595 8.03533 77.8942 7.634C78.5288 7.23267 79.2522 7.032 80.0642 7.032C80.8762 7.032 81.5995 7.23267 82.2342 7.634C82.8688 8.03533 83.3635 8.61867 83.7182 9.384C84.0822 10.14 84.2642 11.0453 84.2642 12.1C84.2642 13.1547 84.0822 14.0647 83.7182 14.83C83.3635 15.586 82.8688 16.1647 82.2342 16.566C81.5995 16.9673 80.8762 17.168 80.0642 17.168ZM80.0642 15.25C80.6615 15.25 81.1282 14.9933 81.4642 14.48C81.8095 13.9667 81.9822 13.1733 81.9822 12.1C81.9822 11.0267 81.8095 10.2333 81.4642 9.72C81.1282 9.20667 80.6615 8.95 80.0642 8.95C79.4762 8.95 79.0095 9.20667 78.6642 9.72C78.3282 10.2333 78.1602 11.0267 78.1602 12.1C78.1602 13.1733 78.3282 13.9667 78.6642 14.48C79.0095 14.9933 79.4762 15.25 80.0642 15.25Z"
            fill="black"/>
</svg>
