<?xml version="1.0"?>
<svg width="51" height="48" viewBox="0 0 51 48" fill="none"
     xmlns="http://www.w3.org/2000/svg">
    <rect x="2" y="2.40039" width="47" height="43.6" rx="6" fill="white"
          stroke="#FF5959"
          stroke-width="4"/>
    <path fill-rule="evenodd" clip-rule="evenodd"
          d="M42.1049 19.3656C42.5086 18.9887 42.5086 18.3777 42.1049 18.0009L40.5631 16.5619C40.1594 16.1851 39.5048 16.1851 39.101 16.5619L22.6708 31.8968C21.9178 32.5996 20.7542 32.6156 19.9822 31.9337L12.2554 25.1093C11.8414 24.7437 11.1871 24.7617 10.7939 25.1495L9.29793 26.625C8.90472 27.0128 8.92152 27.6236 9.33547 27.9892L20.724 38.0477C21.1379 38.4133 21.7923 38.3953 22.1855 38.0075L23.2273 36.98C23.249 36.9628 23.2702 36.9446 23.2908 36.9254L42.1049 19.3656Z"
          fill="#FF5959"/>
    <path
            d="M13.2203 12.4485C13.2203 11.7885 13.1103 11.3338 12.8903 11.0845C12.685 10.8205 12.377 10.6885 11.9663 10.6885C11.1303 10.6885 10.7123 11.1945 10.7123 12.2065V13.8565H8.42434V12.3605C8.42434 11.1138 8.73234 10.1605 9.34834 9.50045C9.96434 8.82579 10.859 8.48845 12.0323 8.48845C13.2057 8.48845 14.1003 8.82579 14.7163 9.50045C15.3323 10.1605 15.6403 11.1138 15.6403 12.3605C15.6403 13.2258 15.4937 14.0251 15.2003 14.7585C14.9217 15.4771 14.5843 16.1005 14.1883 16.6285C13.7923 17.1565 13.279 17.7651 12.6483 18.4545C12.0177 19.1585 11.5557 19.7305 11.2623 20.1705C10.969 20.6105 10.8223 21.0651 10.8223 21.5345C10.8223 21.6811 10.8297 21.7911 10.8443 21.8645H15.4203V24.0645H8.42434V22.1725C8.42434 21.4538 8.53434 20.8158 8.75434 20.2585C8.97434 19.6865 9.24567 19.1878 9.56834 18.7625C9.891 18.3371 10.3163 17.8385 10.8443 17.2665C11.387 16.6651 11.8123 16.1665 12.1203 15.7705C12.4283 15.3598 12.685 14.8758 12.8903 14.3185C13.1103 13.7611 13.2203 13.1378 13.2203 12.4485ZM16.949 12.3605C16.949 11.1285 17.2643 10.1751 17.895 9.50045C18.5257 8.82579 19.435 8.48845 20.623 8.48845C21.811 8.48845 22.7203 8.82579 23.351 9.50045C23.9817 10.1751 24.297 11.1285 24.297 12.3605V20.3685C24.297 21.6005 23.9817 22.5538 23.351 23.2285C22.7203 23.9031 21.811 24.2405 20.623 24.2405C19.435 24.2405 18.5257 23.9031 17.895 23.2285C17.2643 22.5538 16.949 21.6005 16.949 20.3685V12.3605ZM19.369 20.5225C19.369 21.5345 19.787 22.0405 20.623 22.0405C21.459 22.0405 21.877 21.5345 21.877 20.5225V12.2065C21.877 11.1945 21.459 10.6885 20.623 10.6885C19.787 10.6885 19.369 11.1945 19.369 12.2065V20.5225ZM30.6656 12.4485C30.6656 11.7885 30.5556 11.3338 30.3356 11.0845C30.1303 10.8205 29.8223 10.6885 29.4116 10.6885C28.5756 10.6885 28.1576 11.1945 28.1576 12.2065V13.8565H25.8696V12.3605C25.8696 11.1138 26.1776 10.1605 26.7936 9.50045C27.4096 8.82579 28.3043 8.48845 29.4776 8.48845C30.651 8.48845 31.5456 8.82579 32.1616 9.50045C32.7776 10.1605 33.0856 11.1138 33.0856 12.3605C33.0856 13.2258 32.939 14.0251 32.6456 14.7585C32.367 15.4771 32.0296 16.1005 31.6336 16.6285C31.2376 17.1565 30.7243 17.7651 30.0936 18.4545C29.463 19.1585 29.001 19.7305 28.7076 20.1705C28.4143 20.6105 28.2676 21.0651 28.2676 21.5345C28.2676 21.6811 28.275 21.7911 28.2896 21.8645H32.8656V24.0645H25.8696V22.1725C25.8696 21.4538 25.9796 20.8158 26.1996 20.2585C26.4196 19.6865 26.691 19.1878 27.0136 18.7625C27.3363 18.3371 27.7616 17.8385 28.2896 17.2665C28.8323 16.6651 29.2576 16.1665 29.5656 15.7705C29.8736 15.3598 30.1303 14.8758 30.3356 14.3185C30.5556 13.7611 30.6656 13.1378 30.6656 12.4485ZM39.3883 12.4485C39.3883 11.7885 39.2783 11.3338 39.0583 11.0845C38.853 10.8205 38.545 10.6885 38.1343 10.6885C37.2983 10.6885 36.8803 11.1945 36.8803 12.2065V13.8565H34.5923V12.3605C34.5923 11.1138 34.9003 10.1605 35.5163 9.50045C36.1323 8.82579 37.027 8.48845 38.2003 8.48845C39.3736 8.48845 40.2683 8.82579 40.8843 9.50045C41.5003 10.1605 41.8083 11.1138 41.8083 12.3605C41.8083 13.2258 41.6616 14.0251 41.3683 14.7585C41.0896 15.4771 40.7523 16.1005 40.3563 16.6285C39.9603 17.1565 39.447 17.7651 38.8163 18.4545C38.1856 19.1585 37.7236 19.7305 37.4303 20.1705C37.137 20.6105 36.9903 21.0651 36.9903 21.5345C36.9903 21.6811 36.9976 21.7911 37.0123 21.8645H41.5883V24.0645H34.5923V22.1725C34.5923 21.4538 34.7023 20.8158 34.9223 20.2585C35.1423 19.6865 35.4136 19.1878 35.7363 18.7625C36.059 18.3371 36.4843 17.8385 37.0123 17.2665C37.555 16.6651 37.9803 16.1665 38.2883 15.7705C38.5963 15.3598 38.853 14.8758 39.0583 14.3185C39.2783 13.7611 39.3883 13.1378 39.3883 12.4485Z"
            fill="black"/>
</svg>
