<?xml version="1.0"?>
<svg width="139" height="24" viewBox="0 0 139 24" fill="none"
     xmlns="http://www.w3.org/2000/svg">
    <rect x="1" y="1" width="137" height="22" rx="3" fill="white" stroke="#FF5959"
          stroke-width="2"/>
    <path
            d="M23.2095 12.072C23.2095 13.3693 22.7662 14.3913 21.8795 15.138C21.0022 15.8753 19.7375 16.286 18.0855 16.37V17.434H15.9995V16.356C14.3382 16.2627 13.0642 15.8473 12.1775 15.11C11.3002 14.3633 10.8615 13.3507 10.8615 12.072C10.8615 10.784 11.3002 9.776 12.1775 9.048C13.0642 8.31067 14.3382 7.89067 15.9995 7.788V6.78H18.0855V7.774C19.7375 7.86733 21.0022 8.28733 21.8795 9.034C22.7662 9.78067 23.2095 10.7933 23.2095 12.072ZM18.0855 14.592C19.0749 14.4987 19.8122 14.2467 20.2975 13.836C20.7829 13.416 21.0255 12.8233 21.0255 12.058C21.0255 10.5647 20.0455 9.734 18.0855 9.566V14.592ZM13.0595 12.072C13.0595 13.5467 14.0395 14.3867 15.9995 14.592V9.566C15.0009 9.65933 14.2589 9.91133 13.7735 10.322C13.2975 10.7233 13.0595 11.3067 13.0595 12.072ZM26.9643 9.356C28.1309 9.356 29.0269 9.636 29.6523 10.196C30.2776 10.7467 30.5903 11.582 30.5903 12.702V17H28.5463V16.062C28.1356 16.762 27.3703 17.112 26.2503 17.112C25.6716 17.112 25.1676 17.014 24.7383 16.818C24.3183 16.622 23.9963 16.3513 23.7723 16.006C23.5483 15.6607 23.4363 15.2687 23.4363 14.83C23.4363 14.13 23.6976 13.5793 24.2203 13.178C24.7523 12.7767 25.5689 12.576 26.6703 12.576H28.4063C28.4063 12.1 28.2616 11.736 27.9723 11.484C27.6829 11.2227 27.2489 11.092 26.6703 11.092C26.2689 11.092 25.8723 11.1573 25.4803 11.288C25.0976 11.4093 24.7709 11.5773 24.5003 11.792L23.7163 10.266C24.1269 9.97667 24.6169 9.75267 25.1863 9.594C25.7649 9.43533 26.3576 9.356 26.9643 9.356ZM26.7963 15.642C27.1696 15.642 27.5009 15.558 27.7903 15.39C28.0796 15.2127 28.2849 14.956 28.4063 14.62V13.85H26.9083C26.0123 13.85 25.5643 14.144 25.5643 14.732C25.5643 15.012 25.6716 15.236 25.8863 15.404C26.1103 15.5627 26.4136 15.642 26.7963 15.642ZM39.0115 9.468V17H36.8275V11.26H34.4475L34.3775 12.59C34.3402 13.5793 34.2468 14.4007 34.0975 15.054C33.9482 15.7073 33.7055 16.2207 33.3695 16.594C33.0335 16.9673 32.5668 17.154 31.9695 17.154C31.6522 17.154 31.2742 17.098 30.8355 16.986L30.9475 15.194C31.0968 15.2127 31.2042 15.222 31.2695 15.222C31.5962 15.222 31.8388 15.1053 31.9975 14.872C32.1655 14.6293 32.2775 14.326 32.3335 13.962C32.3895 13.5887 32.4315 13.0987 32.4595 12.492L32.5715 9.468H39.0115ZM44.4857 11.876C45.4657 11.8853 46.2171 12.1093 46.7397 12.548C47.2624 12.9773 47.5237 13.5887 47.5237 14.382C47.5237 15.2127 47.2297 15.8613 46.6417 16.328C46.0631 16.7853 45.2464 17.014 44.1917 17.014L40.4117 17V9.468H42.5817V11.876H44.4857ZM43.9957 15.46C44.4157 15.4693 44.7377 15.3807 44.9617 15.194C45.1857 15.0073 45.2977 14.7273 45.2977 14.354C45.2977 13.99 45.1857 13.724 44.9617 13.556C44.7471 13.388 44.4251 13.2993 43.9957 13.29L42.5817 13.276V15.46H43.9957ZM51.7723 17.112C50.9696 17.112 50.2463 16.9487 49.6023 16.622C48.9676 16.286 48.4683 15.824 48.1043 15.236C47.7496 14.648 47.5723 13.9807 47.5723 13.234C47.5723 12.4873 47.7496 11.82 48.1043 11.232C48.4683 10.644 48.9676 10.1867 49.6023 9.86C50.2463 9.524 50.9696 9.356 51.7723 9.356C52.5656 9.356 53.2563 9.524 53.8443 9.86C54.4416 10.1867 54.8756 10.658 55.1463 11.274L53.4523 12.184C53.0603 11.4933 52.4956 11.148 51.7583 11.148C51.1889 11.148 50.7176 11.3347 50.3443 11.708C49.9709 12.0813 49.7843 12.59 49.7843 13.234C49.7843 13.878 49.9709 14.3867 50.3443 14.76C50.7176 15.1333 51.1889 15.32 51.7583 15.32C52.5049 15.32 53.0696 14.9747 53.4523 14.284L55.1463 15.208C54.8756 15.8053 54.4416 16.272 53.8443 16.608C53.2563 16.944 52.5656 17.112 51.7723 17.112ZM55.7734 9.468H57.9434V13.948L61.6114 9.468H63.6134V17H61.4434V12.52L57.7894 17H55.7734V9.468ZM75.4149 13.206C75.4149 14.3727 75.0229 15.2967 74.2389 15.978C73.4642 16.65 72.3536 17.0373 70.9069 17.14V19.716H68.9049V17.14C67.4582 17.0373 66.3429 16.6547 65.5589 15.992C64.7842 15.32 64.3969 14.3913 64.3969 13.206C64.3969 12.0393 64.7796 11.134 65.5449 10.49C66.3196 9.846 67.4396 9.47267 68.9049 9.37V6.612H70.9069V9.37C72.3536 9.47267 73.4642 9.85067 74.2389 10.504C75.0229 11.1573 75.4149 12.058 75.4149 13.206ZM66.5109 13.206C66.5109 13.878 66.7022 14.396 67.0849 14.76C67.4676 15.124 68.0742 15.3527 68.9049 15.446V11.064C68.0742 11.148 67.4676 11.3673 67.0849 11.722C66.7022 12.0673 66.5109 12.562 66.5109 13.206ZM70.9069 15.446C71.7376 15.3527 72.3442 15.124 72.7269 14.76C73.1189 14.396 73.3149 13.878 73.3149 13.206C73.3149 12.562 73.1189 12.0673 72.7269 11.722C72.3442 11.3673 71.7376 11.148 70.9069 11.064V15.446ZM76.1938 9.468H78.3638V13.948L82.0318 9.468H84.0338V17H81.8638V12.52L78.2098 17H76.1938V9.468ZM88.7512 14.144H87.6172V17H85.4332V9.468H87.6172V12.394H88.7932L90.8372 9.468H93.1612L90.5292 13.08L93.3432 17H90.7672L88.7512 14.144ZM96.5049 9.356C97.6716 9.356 98.5676 9.636 99.1929 10.196C99.8182 10.7467 100.131 11.582 100.131 12.702V17H98.0869V16.062C97.6762 16.762 96.9109 17.112 95.7909 17.112C95.2122 17.112 94.7082 17.014 94.2789 16.818C93.8589 16.622 93.5369 16.3513 93.3129 16.006C93.0889 15.6607 92.9769 15.2687 92.9769 14.83C92.9769 14.13 93.2382 13.5793 93.7609 13.178C94.2929 12.7767 95.1096 12.576 96.2109 12.576H97.9469C97.9469 12.1 97.8022 11.736 97.5129 11.484C97.2236 11.2227 96.7896 11.092 96.2109 11.092C95.8096 11.092 95.4129 11.1573 95.0209 11.288C94.6382 11.4093 94.3116 11.5773 94.0409 11.792L93.2569 10.266C93.6676 9.97667 94.1576 9.75267 94.7269 9.594C95.3056 9.43533 95.8982 9.356 96.5049 9.356ZM96.3369 15.642C96.7102 15.642 97.0416 15.558 97.3309 15.39C97.6202 15.2127 97.8256 14.956 97.9469 14.62V13.85H96.4489C95.5529 13.85 95.1049 14.144 95.1049 14.732C95.1049 15.012 95.2122 15.236 95.4269 15.404C95.6509 15.5627 95.9542 15.642 96.3369 15.642ZM109.812 15.208V18.652H107.782V17H101.328V9.468H103.498V15.208H106.536V9.468H108.72V15.208H109.812ZM110.486 9.468H112.656V13.948L116.324 9.468H118.326V17H116.156V12.52L112.502 17H110.486V9.468ZM119.725 9.468H121.895V13.948L125.563 9.468H127.565V17H125.395V12.52L121.741 17H119.725V9.468Z"
            fill="#FF5959"/>
</svg>
