<?xml version="1.0"?>
<svg width="69" height="23" viewBox="0 0 69 23" fill="none"
     xmlns="http://www.w3.org/2000/svg">
    <path
            d="M0 4C0 1.79086 1.79086 0 4 0H65C67.2091 0 69 1.79086 69 4V18.4C69 20.6091 67.2091 22.4 65 22.4H4C1.79086 22.4 0 20.6091 0 18.4V4Z"
            fill="#9AD124"/>
    <path
            d="M20.4644 7.2V17H18.1964V12.982H13.7444V17H11.4764V7.2H13.7444V11.064H18.1964V7.2H20.4644ZM25.5798 17.112C24.7864 17.112 24.0724 16.9487 23.4378 16.622C22.8124 16.286 22.3224 15.824 21.9678 15.236C21.6131 14.648 21.4358 13.9807 21.4358 13.234C21.4358 12.4873 21.6131 11.82 21.9678 11.232C22.3224 10.644 22.8124 10.1867 23.4378 9.86C24.0724 9.524 24.7864 9.356 25.5798 9.356C26.3731 9.356 27.0824 9.524 27.7078 9.86C28.3331 10.1867 28.8231 10.644 29.1778 11.232C29.5324 11.82 29.7098 12.4873 29.7098 13.234C29.7098 13.9807 29.5324 14.648 29.1778 15.236C28.8231 15.824 28.3331 16.286 27.7078 16.622C27.0824 16.9487 26.3731 17.112 25.5798 17.112ZM25.5798 15.32C26.1398 15.32 26.5971 15.1333 26.9518 14.76C27.3158 14.3773 27.4978 13.8687 27.4978 13.234C27.4978 12.5993 27.3158 12.0953 26.9518 11.722C26.5971 11.3393 26.1398 11.148 25.5798 11.148C25.0198 11.148 24.5578 11.3393 24.1938 11.722C23.8298 12.0953 23.6478 12.5993 23.6478 13.234C23.6478 13.8687 23.8298 14.3773 24.1938 14.76C24.5578 15.1333 25.0198 15.32 25.5798 15.32ZM36.2659 13.066C37.1526 13.3647 37.5959 13.962 37.5959 14.858C37.5959 15.5393 37.3392 16.0667 36.8259 16.44C36.3126 16.8133 35.5472 17 34.5299 17H30.5119V9.468H34.3619C35.3046 9.468 36.0419 9.64067 36.5739 9.986C37.1059 10.322 37.3719 10.798 37.3719 11.414C37.3719 11.7873 37.2739 12.1187 37.0779 12.408C36.8912 12.688 36.6206 12.9073 36.2659 13.066ZM32.5139 12.562H34.1659C34.9312 12.562 35.3139 12.2913 35.3139 11.75C35.3139 11.218 34.9312 10.952 34.1659 10.952H32.5139V12.562ZM34.3479 15.516C35.1506 15.516 35.5519 15.2407 35.5519 14.69C35.5519 14.4007 35.4586 14.1907 35.2719 14.06C35.0852 13.92 34.7912 13.85 34.3899 13.85H32.5139V15.516H34.3479ZM42.4829 11.876C43.4629 11.8853 44.2049 12.1047 44.7089 12.534C45.2129 12.9633 45.4649 13.5793 45.4649 14.382C45.4649 15.222 45.1802 15.8707 44.6109 16.328C44.0416 16.7853 43.2342 17.014 42.1889 17.014L38.5209 17V9.468H40.6909V11.876H42.4829ZM46.2769 9.468H48.4469V17H46.2769V9.468ZM41.9929 15.46C42.4129 15.4693 42.7349 15.3807 42.9589 15.194C43.1829 15.0073 43.2949 14.7273 43.2949 14.354C43.2949 13.99 43.1829 13.724 42.9589 13.556C42.7442 13.388 42.4222 13.2993 41.9929 13.29L40.6909 13.276V15.46H41.9929ZM49.8521 9.468H52.0221V13.948L55.6901 9.468H57.6921V17H55.5221V12.52L51.8681 17H49.8521V9.468ZM53.6321 8.656C51.9895 8.656 51.1635 7.93267 51.1541 6.486H52.5821C52.5915 6.81267 52.6801 7.06933 52.8481 7.256C53.0255 7.43333 53.2821 7.522 53.6181 7.522C53.9541 7.522 54.2108 7.43333 54.3881 7.256C54.5748 7.06933 54.6681 6.81267 54.6681 6.486H56.1241C56.1148 7.93267 55.2841 8.656 53.6321 8.656Z"
            fill="white"/>
    <path
            d="M4 3H65V-3H4V3ZM66 4V18.4H72V4H66ZM65 19.4H4V25.4H65V19.4ZM3 18.4V4H-3V18.4H3ZM4 19.4C3.44772 19.4 3 18.9523 3 18.4H-3C-3 22.266 0.134005 25.4 4 25.4V19.4ZM66 18.4C66 18.9523 65.5523 19.4 65 19.4V25.4C68.866 25.4 72 22.266 72 18.4H66ZM65 3C65.5523 3 66 3.44771 66 4H72C72 0.134008 68.866 -3 65 -3V3ZM4 -3C0.134012 -3 -3 0.133998 -3 4H3C3 3.44772 3.44771 3 4 3V-3Z"
            fill="#9AD124"/>
</svg>
