<?xml version="1.0"?>
<svg width="101" height="24" viewBox="0 0 101 24" fill="none" xmlns="http://www.w3.org/2000/svg">
    <rect width="101" height="24" rx="5" fill="#303030"/>
    <path d="M16.6667 6.00002H13.88C13.6 5.22669 12.8667 4.66669 12 4.66669C11.1333 4.66669 10.4 5.22669 10.12 6.00002H7.33333C6.6 6.00002 6 6.60002 6 7.33335V16.6667C6 17.4 6.6 18 7.33333 18H16.6667C17.4 18 18 17.4 18 16.6667V7.33335C18 6.60002 17.4 6.00002 16.6667 6.00002ZM12 6.00002C12.3667 6.00002 12.6667 6.30002 12.6667 6.66669C12.6667 7.03335 12.3667 7.33335 12 7.33335C11.6333 7.33335 11.3333 7.03335 11.3333 6.66669C11.3333 6.30002 11.6333 6.00002 12 6.00002ZM12 8.66669C13.1067 8.66669 14 9.56002 14 10.6667C14 11.7734 13.1067 12.6667 12 12.6667C10.8933 12.6667 10 11.7734 10 10.6667C10 9.56002 10.8933 8.66669 12 8.66669ZM16 16.6667H8V15.7334C8 14.4 10.6667 13.6667 12 13.6667C13.3333 13.6667 16 14.4 16 15.7334V16.6667Z" fill="white"/>
    <path d="M27.852 16.168C26.8533 16.168 25.948 15.9533 25.136 15.524C24.3333 15.0853 23.6987 14.4833 23.232 13.718C22.7747 12.9433 22.546 12.0707 22.546 11.1C22.546 10.1293 22.7747 9.26133 23.232 8.496C23.6987 7.72133 24.3333 7.11933 25.136 6.69C25.948 6.25133 26.858 6.032 27.866 6.032C28.7153 6.032 29.4807 6.18133 30.162 6.48C30.8527 6.77867 31.4313 7.208 31.898 7.768L30.442 9.112C29.7793 8.34667 28.958 7.964 27.978 7.964C27.3713 7.964 26.83 8.09933 26.354 8.37C25.878 8.63133 25.5047 9 25.234 9.476C24.9727 9.952 24.842 10.4933 24.842 11.1C24.842 11.7067 24.9727 12.248 25.234 12.724C25.5047 13.2 25.878 13.5733 26.354 13.844C26.83 14.1053 27.3713 14.236 27.978 14.236C28.958 14.236 29.7793 13.8487 30.442 13.074L31.898 14.418C31.4313 14.9873 30.8527 15.4213 30.162 15.72C29.4713 16.0187 28.7013 16.168 27.852 16.168ZM39.5704 12.262C39.5704 12.29 39.5564 12.486 39.5284 12.85H33.8304C33.9331 13.3167 34.1758 13.6853 34.5584 13.956C34.9411 14.2267 35.4171 14.362 35.9864 14.362C36.3784 14.362 36.7238 14.306 37.0224 14.194C37.3304 14.0727 37.6151 13.886 37.8764 13.634L39.0384 14.894C38.3291 15.706 37.2931 16.112 35.9304 16.112C35.0811 16.112 34.3298 15.9487 33.6764 15.622C33.0231 15.286 32.5191 14.824 32.1644 14.236C31.8098 13.648 31.6324 12.9807 31.6324 12.234C31.6324 11.4967 31.8051 10.834 32.1504 10.246C32.5051 9.64867 32.9858 9.18667 33.5924 8.86C34.2084 8.524 34.8944 8.356 35.6504 8.356C36.3878 8.356 37.0551 8.51467 37.6524 8.832C38.2498 9.14933 38.7164 9.60667 39.0524 10.204C39.3978 10.792 39.5704 11.478 39.5704 12.262ZM35.6644 10.008C35.1698 10.008 34.7544 10.148 34.4184 10.428C34.0824 10.708 33.8771 11.0907 33.8024 11.576H37.5124C37.4378 11.1 37.2324 10.722 36.8964 10.442C36.5604 10.1527 36.1498 10.008 35.6644 10.008ZM43.8625 13.144H42.7285V16H40.5445V8.468H42.7285V11.394H43.9045L45.9485 8.468H48.2725L45.6405 12.08L48.4545 16H45.8785L43.8625 13.144ZM53.265 8.356C53.965 8.356 54.5996 8.51933 55.169 8.846C55.7476 9.16333 56.2003 9.616 56.527 10.204C56.8536 10.7827 57.017 11.4593 57.017 12.234C57.017 13.0087 56.8536 13.69 56.527 14.278C56.2003 14.8567 55.7476 15.3093 55.169 15.636C54.5996 15.9533 53.965 16.112 53.265 16.112C52.3036 16.112 51.5476 15.8087 50.997 15.202V18.716H48.813V8.468H50.899V9.336C51.4403 8.68267 52.229 8.356 53.265 8.356ZM52.887 14.32C53.447 14.32 53.9043 14.1333 54.259 13.76C54.623 13.3773 54.805 12.8687 54.805 12.234C54.805 11.5993 54.623 11.0953 54.259 10.722C53.9043 10.3393 53.447 10.148 52.887 10.148C52.327 10.148 51.865 10.3393 51.501 10.722C51.1463 11.0953 50.969 11.5993 50.969 12.234C50.969 12.8687 51.1463 13.3773 51.501 13.76C51.865 14.1333 52.327 14.32 52.887 14.32ZM65.1697 12.262C65.1697 12.29 65.1557 12.486 65.1277 12.85H59.4297C59.5323 13.3167 59.775 13.6853 60.1577 13.956C60.5403 14.2267 61.0163 14.362 61.5857 14.362C61.9777 14.362 62.323 14.306 62.6217 14.194C62.9297 14.0727 63.2143 13.886 63.4757 13.634L64.6377 14.894C63.9283 15.706 62.8923 16.112 61.5297 16.112C60.6803 16.112 59.929 15.9487 59.2757 15.622C58.6223 15.286 58.1183 14.824 57.7637 14.236C57.409 13.648 57.2317 12.9807 57.2317 12.234C57.2317 11.4967 57.4043 10.834 57.7497 10.246C58.1043 9.64867 58.585 9.18667 59.1917 8.86C59.8077 8.524 60.4937 8.356 61.2497 8.356C61.987 8.356 62.6543 8.51467 63.2517 8.832C63.849 9.14933 64.3157 9.60667 64.6517 10.204C64.997 10.792 65.1697 11.478 65.1697 12.262ZM61.2637 10.008C60.769 10.008 60.3537 10.148 60.0177 10.428C59.6817 10.708 59.4763 11.0907 59.4017 11.576H63.1117C63.037 11.1 62.8317 10.722 62.4957 10.442C62.1597 10.1527 61.749 10.008 61.2637 10.008ZM72.212 10.26H69.664V16H67.494V10.26H64.946V8.468H72.212V10.26ZM75.6022 8.356C76.7688 8.356 77.6648 8.636 78.2902 9.196C78.9155 9.74667 79.2282 10.582 79.2282 11.702V16H77.1842V15.062C76.7735 15.762 76.0082 16.112 74.8882 16.112C74.3095 16.112 73.8055 16.014 73.3762 15.818C72.9562 15.622 72.6342 15.3513 72.4102 15.006C72.1862 14.6607 72.0742 14.2687 72.0742 13.83C72.0742 13.13 72.3355 12.5793 72.8582 12.178C73.3902 11.7767 74.2068 11.576 75.3082 11.576H77.0442C77.0442 11.1 76.8995 10.736 76.6102 10.484C76.3208 10.2227 75.8868 10.092 75.3082 10.092C74.9068 10.092 74.5102 10.1573 74.1182 10.288C73.7355 10.4093 73.4088 10.5773 73.1382 10.792L72.3542 9.266C72.7648 8.97667 73.2548 8.75267 73.8242 8.594C74.4028 8.43533 74.9955 8.356 75.6022 8.356ZM75.4342 14.642C75.8075 14.642 76.1388 14.558 76.4282 14.39C76.7175 14.2127 76.9228 13.956 77.0442 13.62V12.85H75.5462C74.6502 12.85 74.2022 13.144 74.2022 13.732C74.2022 14.012 74.3095 14.236 74.5242 14.404C74.7482 14.5627 75.0515 14.642 75.4342 14.642ZM84.8634 8.356C85.5634 8.356 86.1981 8.51933 86.7674 8.846C87.3461 9.16333 87.7987 9.616 88.1254 10.204C88.4521 10.7827 88.6154 11.4593 88.6154 12.234C88.6154 13.0087 88.4521 13.69 88.1254 14.278C87.7987 14.8567 87.3461 15.3093 86.7674 15.636C86.1981 15.9533 85.5634 16.112 84.8634 16.112C83.9021 16.112 83.1461 15.8087 82.5954 15.202V18.716H80.4114V8.468H82.4974V9.336C83.0387 8.68267 83.8274 8.356 84.8634 8.356ZM84.4854 14.32C85.0454 14.32 85.5027 14.1333 85.8574 13.76C86.2214 13.3773 86.4034 12.8687 86.4034 12.234C86.4034 11.5993 86.2214 11.0953 85.8574 10.722C85.5027 10.3393 85.0454 10.148 84.4854 10.148C83.9254 10.148 83.4634 10.3393 83.0994 10.722C82.7447 11.0953 82.5674 11.5993 82.5674 12.234C82.5674 12.8687 82.7447 13.3773 83.0994 13.76C83.4634 14.1333 83.9254 14.32 84.4854 14.32ZM93.5201 10.876C94.5001 10.8853 95.2514 11.1093 95.7741 11.548C96.2968 11.9773 96.5581 12.5887 96.5581 13.382C96.5581 14.2127 96.2641 14.8613 95.6761 15.328C95.0974 15.7853 94.2808 16.014 93.2261 16.014L89.4461 16V8.468H91.6161V10.876H93.5201ZM93.0301 14.46C93.4501 14.4693 93.7721 14.3807 93.9961 14.194C94.2201 14.0073 94.3321 13.7273 94.3321 13.354C94.3321 12.99 94.2201 12.724 93.9961 12.556C93.7814 12.388 93.4594 12.2993 93.0301 12.29L91.6161 12.276V14.46H93.0301Z" fill="white"/>
</svg>
