<?xml version="1.0"?>
<svg width="122" height="24" viewBox="0 0 122 24" fill="none" xmlns="http://www.w3.org/2000/svg">
    <rect width="122" height="24" rx="5" fill="#FF6C1A"/>
    <path d="M16.6667 6.00002H13.88C13.6 5.22669 12.8667 4.66669 12 4.66669C11.1333 4.66669 10.4 5.22669 10.12 6.00002H7.33333C6.6 6.00002 6 6.60002 6 7.33335V16.6667C6 17.4 6.6 18 7.33333 18H16.6667C17.4 18 18 17.4 18 16.6667V7.33335C18 6.60002 17.4 6.00002 16.6667 6.00002ZM12 6.00002C12.3667 6.00002 12.6667 6.30002 12.6667 6.66669C12.6667 7.03335 12.3667 7.33335 12 7.33335C11.6333 7.33335 11.3333 7.03335 11.3333 6.66669C11.3333 6.30002 11.6333 6.00002 12 6.00002ZM12 8.66669C13.1067 8.66669 14 9.56002 14 10.6667C14 11.7734 13.1067 12.6667 12 12.6667C10.8933 12.6667 10 11.7734 10 10.6667C10 9.56002 10.8933 8.66669 12 8.66669ZM16 16.6667H8V15.7334C8 14.4 10.6667 13.6667 12 13.6667C13.3333 13.6667 16 14.4 16 15.7334V16.6667Z" fill="white"/>
    <path d="M28.79 10.89C29.3593 11.086 29.8027 11.394 30.12 11.814C30.4467 12.2247 30.61 12.7053 30.61 13.256C30.61 13.8533 30.414 14.3713 30.022 14.81C29.63 15.2487 29.098 15.5847 28.426 15.818C27.7633 16.0513 27.0353 16.168 26.242 16.168C25.57 16.168 24.898 16.084 24.226 15.916C23.5633 15.748 22.9333 15.4913 22.336 15.146L23.036 13.522C23.4653 13.7833 23.9367 13.984 24.45 14.124C24.9727 14.2547 25.4813 14.32 25.976 14.32C26.648 14.32 27.2033 14.1987 27.642 13.956C28.09 13.7133 28.314 13.3727 28.314 12.934C28.314 12.57 28.16 12.2947 27.852 12.108C27.5533 11.9213 27.1427 11.828 26.62 11.828H24.226V10.12H26.452C26.9093 10.12 27.264 10.0267 27.516 9.84C27.7773 9.65333 27.908 9.39667 27.908 9.07C27.908 8.68733 27.7213 8.38867 27.348 8.174C26.984 7.95933 26.5127 7.852 25.934 7.852C25.5047 7.852 25.0613 7.91267 24.604 8.034C24.1467 8.146 23.7127 8.31867 23.302 8.552L22.616 6.788C23.652 6.256 24.772 5.99 25.976 5.99C26.7413 5.99 27.446 6.102 28.09 6.326C28.734 6.55 29.2473 6.87667 29.63 7.306C30.0127 7.73533 30.204 8.23467 30.204 8.804C30.204 9.27067 30.078 9.686 29.826 10.05C29.574 10.414 29.2287 10.694 28.79 10.89ZM34.4635 8.356C35.6302 8.356 36.5262 8.636 37.1515 9.196C37.7768 9.74667 38.0895 10.582 38.0895 11.702V16H36.0455V15.062C35.6348 15.762 34.8695 16.112 33.7495 16.112C33.1708 16.112 32.6668 16.014 32.2375 15.818C31.8175 15.622 31.4955 15.3513 31.2715 15.006C31.0475 14.6607 30.9355 14.2687 30.9355 13.83C30.9355 13.13 31.1968 12.5793 31.7195 12.178C32.2515 11.7767 33.0682 11.576 34.1695 11.576H35.9055C35.9055 11.1 35.7608 10.736 35.4715 10.484C35.1822 10.2227 34.7482 10.092 34.1695 10.092C33.7682 10.092 33.3715 10.1573 32.9795 10.288C32.5968 10.4093 32.2702 10.5773 31.9995 10.792L31.2155 9.266C31.6262 8.97667 32.1162 8.75267 32.6855 8.594C33.2642 8.43533 33.8568 8.356 34.4635 8.356ZM34.2955 14.642C34.6688 14.642 35.0002 14.558 35.2895 14.39C35.5788 14.2127 35.7842 13.956 35.9055 13.62V12.85H34.4075C33.5115 12.85 33.0635 13.144 33.0635 13.732C33.0635 14.012 33.1708 14.236 33.3855 14.404C33.6095 14.5627 33.9128 14.642 34.2955 14.642ZM46.6367 16V11.492L44.3827 15.272H43.4587L41.2607 11.478V16H39.2867V8.468H41.5687L43.9767 12.822L46.5387 8.468H48.5827L48.6107 16H46.6367ZM57.3247 12.262C57.3247 12.29 57.3107 12.486 57.2827 12.85H51.5847C51.6874 13.3167 51.9301 13.6853 52.3127 13.956C52.6954 14.2267 53.1714 14.362 53.7407 14.362C54.1327 14.362 54.4781 14.306 54.7767 14.194C55.0847 14.0727 55.3694 13.886 55.6307 13.634L56.7927 14.894C56.0834 15.706 55.0474 16.112 53.6847 16.112C52.8354 16.112 52.0841 15.9487 51.4307 15.622C50.7774 15.286 50.2734 14.824 49.9187 14.236C49.5641 13.648 49.3867 12.9807 49.3867 12.234C49.3867 11.4967 49.5594 10.834 49.9047 10.246C50.2594 9.64867 50.7401 9.18667 51.3467 8.86C51.9627 8.524 52.6487 8.356 53.4047 8.356C54.1421 8.356 54.8094 8.51467 55.4067 8.832C56.0041 9.14933 56.4707 9.60667 56.8067 10.204C57.1521 10.792 57.3247 11.478 57.3247 12.262ZM53.4187 10.008C52.9241 10.008 52.5087 10.148 52.1727 10.428C51.8367 10.708 51.6314 11.0907 51.5567 11.576H55.2667C55.1921 11.1 54.9867 10.722 54.6507 10.442C54.3147 10.1527 53.9041 10.008 53.4187 10.008ZM61.8828 16.112C61.0802 16.112 60.3568 15.9487 59.7128 15.622C59.0782 15.286 58.5788 14.824 58.2148 14.236C57.8602 13.648 57.6828 12.9807 57.6828 12.234C57.6828 11.4873 57.8602 10.82 58.2148 10.232C58.5788 9.644 59.0782 9.18667 59.7128 8.86C60.3568 8.524 61.0802 8.356 61.8828 8.356C62.6762 8.356 63.3668 8.524 63.9548 8.86C64.5522 9.18667 64.9862 9.658 65.2568 10.274L63.5628 11.184C63.1708 10.4933 62.6062 10.148 61.8688 10.148C61.2995 10.148 60.8282 10.3347 60.4548 10.708C60.0815 11.0813 59.8948 11.59 59.8948 12.234C59.8948 12.878 60.0815 13.3867 60.4548 13.76C60.8282 14.1333 61.2995 14.32 61.8688 14.32C62.6155 14.32 63.1802 13.9747 63.5628 13.284L65.2568 14.208C64.9862 14.8053 64.5522 15.272 63.9548 15.608C63.3668 15.944 62.6762 16.112 61.8828 16.112ZM72.1846 10.26H69.6366V16H67.4666V10.26H64.9186V8.468H72.1846V10.26ZM72.6488 8.468H74.8188V12.948L78.4868 8.468H80.4888V16H78.3188V11.52L74.6648 16H72.6488V8.468ZM88.2163 10.26H85.6683V16H83.4983V10.26H80.9503V8.468H88.2163V10.26ZM95.688 12.262C95.688 12.29 95.674 12.486 95.646 12.85H89.948C90.0507 13.3167 90.2934 13.6853 90.676 13.956C91.0587 14.2267 91.5347 14.362 92.104 14.362C92.496 14.362 92.8414 14.306 93.14 14.194C93.448 14.0727 93.7327 13.886 93.994 13.634L95.156 14.894C94.4467 15.706 93.4107 16.112 92.048 16.112C91.1987 16.112 90.4474 15.9487 89.794 15.622C89.1407 15.286 88.6367 14.824 88.282 14.236C87.9274 13.648 87.75 12.9807 87.75 12.234C87.75 11.4967 87.9227 10.834 88.268 10.246C88.6227 9.64867 89.1034 9.18667 89.71 8.86C90.326 8.524 91.012 8.356 91.768 8.356C92.5054 8.356 93.1727 8.51467 93.77 8.832C94.3674 9.14933 94.834 9.60667 95.17 10.204C95.5154 10.792 95.688 11.478 95.688 12.262ZM91.782 10.008C91.2874 10.008 90.872 10.148 90.536 10.428C90.2 10.708 89.9947 11.0907 89.92 11.576H93.63C93.5554 11.1 93.35 10.722 93.014 10.442C92.678 10.1527 92.2674 10.008 91.782 10.008ZM103.818 8.468V16H101.634V10.26H99.2537L99.1837 11.59C99.1464 12.5793 99.0531 13.4007 98.9037 14.054C98.7544 14.7073 98.5117 15.2207 98.1757 15.594C97.8397 15.9673 97.3731 16.154 96.7757 16.154C96.4584 16.154 96.0804 16.098 95.6417 15.986L95.7537 14.194C95.9031 14.2127 96.0104 14.222 96.0757 14.222C96.4024 14.222 96.6451 14.1053 96.8037 13.872C96.9717 13.6293 97.0837 13.326 97.1397 12.962C97.1957 12.5887 97.2377 12.0987 97.2657 11.492L97.3777 8.468H103.818ZM109.292 10.876C110.272 10.8853 111.023 11.1093 111.546 11.548C112.069 11.9773 112.33 12.5887 112.33 13.382C112.33 14.2127 112.036 14.8613 111.448 15.328C110.869 15.7853 110.053 16.014 108.998 16.014L105.218 16V8.468H107.388V10.876H109.292ZM108.802 14.46C109.222 14.4693 109.544 14.3807 109.768 14.194C109.992 14.0073 110.104 13.7273 110.104 13.354C110.104 12.99 109.992 12.724 109.768 12.556C109.553 12.388 109.231 12.2993 108.802 12.29L107.388 12.276V14.46H108.802Z" fill="white"/>
</svg>
