<?xml version="1.0"?>
<svg width="104" height="24" viewBox="0 0 104 24" fill="none"
     xmlns="http://www.w3.org/2000/svg">
    <rect x="1" y="1" width="102" height="22" rx="3" fill="white" stroke="#FF5959"
          stroke-width="2"/>
    <path
            d="M20.4835 7.2V17H18.2155V12.982H13.7635V17H11.4955V7.2H13.7635V11.064H18.2155V7.2H20.4835ZM24.9969 9.356C26.1636 9.356 27.0596 9.636 27.6849 10.196C28.3102 10.7467 28.6229 11.582 28.6229 12.702V17H26.5789V16.062C26.1682 16.762 25.4029 17.112 24.2829 17.112C23.7042 17.112 23.2002 17.014 22.7709 16.818C22.3509 16.622 22.0289 16.3513 21.8049 16.006C21.5809 15.6607 21.4689 15.2687 21.4689 14.83C21.4689 14.13 21.7302 13.5793 22.2529 13.178C22.7849 12.7767 23.6016 12.576 24.7029 12.576H26.4389C26.4389 12.1 26.2942 11.736 26.0049 11.484C25.7156 11.2227 25.2816 11.092 24.7029 11.092C24.3016 11.092 23.9049 11.1573 23.5129 11.288C23.1302 11.4093 22.8036 11.5773 22.5329 11.792L21.7489 10.266C22.1596 9.97667 22.6496 9.75267 23.2189 9.594C23.7976 9.43533 24.3902 9.356 24.9969 9.356ZM24.8289 15.642C25.2022 15.642 25.5336 15.558 25.8229 15.39C26.1122 15.2127 26.3176 14.956 26.4389 14.62V13.85H24.9409C24.0449 13.85 23.5969 14.144 23.5969 14.732C23.5969 15.012 23.7042 15.236 23.9189 15.404C24.1429 15.5627 24.4462 15.642 24.8289 15.642ZM34.2581 9.356C34.9581 9.356 35.5928 9.51933 36.1621 9.846C36.7408 10.1633 37.1935 10.616 37.5201 11.204C37.8468 11.7827 38.0101 12.4593 38.0101 13.234C38.0101 14.0087 37.8468 14.69 37.5201 15.278C37.1935 15.8567 36.7408 16.3093 36.1621 16.636C35.5928 16.9533 34.9581 17.112 34.2581 17.112C33.2968 17.112 32.5408 16.8087 31.9901 16.202V19.716H29.8061V9.468H31.8921V10.336C32.4335 9.68267 33.2221 9.356 34.2581 9.356ZM33.8801 15.32C34.4401 15.32 34.8975 15.1333 35.2521 14.76C35.6161 14.3773 35.7981 13.8687 35.7981 13.234C35.7981 12.5993 35.6161 12.0953 35.2521 11.722C34.8975 11.3393 34.4401 11.148 33.8801 11.148C33.3201 11.148 32.8581 11.3393 32.4941 11.722C32.1395 12.0953 31.9621 12.5993 31.9621 13.234C31.9621 13.8687 32.1395 14.3773 32.4941 14.76C32.8581 15.1333 33.3201 15.32 33.8801 15.32ZM46.1817 9.468L42.7797 17.462C42.4344 18.33 42.0051 18.9413 41.4917 19.296C40.9877 19.6507 40.3764 19.828 39.6577 19.828C39.2657 19.828 38.8784 19.7673 38.4957 19.646C38.1131 19.5247 37.8004 19.3567 37.5577 19.142L38.3557 17.588C38.5237 17.7373 38.7151 17.854 38.9297 17.938C39.1537 18.022 39.3731 18.064 39.5877 18.064C39.8864 18.064 40.1291 17.9893 40.3157 17.84C40.5024 17.7 40.6704 17.462 40.8197 17.126L40.8477 17.056L37.5857 9.468H39.8397L41.9537 14.578L44.0817 9.468H46.1817ZM58.0294 9.468V17H46.5354V9.468H48.7054V15.208H51.2114V9.468H53.3814V15.208H55.8594V9.468H58.0294ZM66.7472 13.262C66.7472 13.29 66.7332 13.486 66.7052 13.85H61.0072C61.1099 14.3167 61.3525 14.6853 61.7352 14.956C62.1179 15.2267 62.5939 15.362 63.1632 15.362C63.5552 15.362 63.9005 15.306 64.1992 15.194C64.5072 15.0727 64.7919 14.886 65.0532 14.634L66.2152 15.894C65.5059 16.706 64.4699 17.112 63.1072 17.112C62.2579 17.112 61.5065 16.9487 60.8532 16.622C60.1999 16.286 59.6959 15.824 59.3412 15.236C58.9865 14.648 58.8092 13.9807 58.8092 13.234C58.8092 12.4967 58.9819 11.834 59.3272 11.246C59.6819 10.6487 60.1625 10.1867 60.7692 9.86C61.3852 9.524 62.0712 9.356 62.8272 9.356C63.5645 9.356 64.2319 9.51467 64.8292 9.832C65.4265 10.1493 65.8932 10.6067 66.2292 11.204C66.5745 11.792 66.7472 12.478 66.7472 13.262ZM62.8412 11.008C62.3465 11.008 61.9312 11.148 61.5952 11.428C61.2592 11.708 61.0539 12.0907 60.9792 12.576H64.6892C64.6145 12.1 64.4092 11.722 64.0732 11.442C63.7372 11.1527 63.3265 11.008 62.8412 11.008ZM67.7213 9.468H69.8913V12.408H73.1673V9.468H75.3513V17H73.1673V14.186H69.8913V17H67.7213V9.468ZM76.742 9.468H78.912V13.948L82.58 9.468H84.582V17H82.412V12.52L78.758 17H76.742V9.468ZM92.6734 9.468V17H90.7274V14.844H89.1174L87.6894 17H85.3654L87.0874 14.536C86.5648 14.3307 86.1634 14.0367 85.8834 13.654C85.6128 13.262 85.4774 12.7907 85.4774 12.24C85.4774 11.3533 85.7948 10.672 86.4294 10.196C87.0734 9.71067 87.9554 9.468 89.0754 9.468H92.6734ZM89.1174 11.246C88.6508 11.246 88.2961 11.33 88.0534 11.498C87.8201 11.666 87.7034 11.9367 87.7034 12.31C87.7034 12.6833 87.8154 12.9587 88.0394 13.136C88.2728 13.304 88.6228 13.388 89.0894 13.388H90.7274V11.246H89.1174Z"
            fill="black"/>
</svg>
