<svg width="167" height="47" viewBox="0 0 167 47" fill="none" xmlns="http://www.w3.org/2000/svg">
<path d="M14.3161 37.7656H36.8592V46.3631H0.129558V40.4722L22.6078 8.6294H0V0H36.6325V5.73171L14.3161 37.7656Z" fill="white"/>
<path d="M79.0303 0V30.3462C79.0303 33.7852 78.2853 36.7678 76.7954 39.294C75.3055 41.799 73.1678 43.7096 70.3823 45.0257C67.5968 46.3419 64.3038 47 60.5035 47C54.7598 47 50.236 45.5352 46.9323 42.6057C43.6286 39.6762 41.9443 35.664 41.8796 30.5691V0H53.313V30.792C53.4426 35.8656 55.8394 38.4024 60.5035 38.4024C62.8571 38.4024 64.6385 37.7656 65.8477 36.4919C67.057 35.2182 67.6616 33.1484 67.6616 30.2825V0H79.0303Z" fill="white"/>
<path d="M86.1559 46.3631V0H103.096C109.163 0 113.773 1.09327 116.926 3.27981C120.1 5.46635 121.687 8.64002 121.687 12.8008C121.687 15.1996 121.126 17.2482 120.003 18.9465C118.88 20.6448 117.228 21.8972 115.047 22.7039C117.509 23.3408 119.398 24.5296 120.715 26.2703C122.033 28.0111 122.691 30.1339 122.691 32.6389C122.691 37.1818 121.223 40.5996 118.286 42.8923C115.371 45.1637 111.042 46.3207 105.298 46.3631H86.1559ZM97.5246 26.6524V37.7656H104.974C107.026 37.7656 108.602 37.3092 109.703 36.3963C110.804 35.4623 111.355 34.1567 111.355 32.4797C111.355 28.6161 109.401 26.6737 105.492 26.6524H97.5246ZM97.5246 19.3286H103.452C105.935 19.3074 107.706 18.8616 108.764 17.9912C109.822 17.1208 110.351 15.8365 110.351 14.1382C110.351 12.1852 109.779 10.7841 108.634 9.93496C107.49 9.06459 105.644 8.6294 103.096 8.6294H97.5246V19.3286Z" fill="white"/>
<path d="M146.497 29.9959H140.343V46.3631H128.975V0H147.534C153.127 0 157.499 1.22064 160.652 3.66192C163.804 6.10321 165.381 9.55285 165.381 14.0108C165.381 17.2376 164.711 19.9124 163.372 22.0352C162.055 24.1581 159.982 25.8776 157.154 27.1938L167 45.8855V46.3631H154.822L146.497 29.9959ZM140.343 21.3665H147.534C149.693 21.3665 151.313 20.8146 152.392 19.7107C153.494 18.5856 154.044 17.0253 154.044 15.0298C154.044 13.0343 153.494 11.474 152.392 10.3489C151.291 9.20257 149.672 8.6294 147.534 8.6294H140.343V21.3665Z" fill="white"/>
</svg>
