<svg width="148" height="53" viewBox="0 0 148 53" fill="none" xmlns="http://www.w3.org/2000/svg">
<path d="M44.5611 39.7405C46.355 41.738 47.8244 43.4882 48.8931 44.7057L37.2519 52.3912L27.0802 35.5933C24.0458 41.1292 20.458 46.8934 16.4695 53L5 44.135C8.70229 40.0449 12.4618 36.2021 16.4695 32.4354C18.0344 30.9706 19.0649 29.9623 19.4466 29.5818C18.2061 29.3536 14.5611 28.5736 8.54962 27.0517C4.21756 25.9293 1.35496 25.2064 0 24.6927L4.61832 11.3001C11.2405 14.0014 17.1374 17.0262 22.3092 20.2032C21.126 11.9279 20.5153 5.21249 20.5153 0H33.8359C33.8359 3.6906 33.1679 10.4821 31.813 20.3173C32.8435 19.8798 35.0191 18.9286 38.3206 17.3496C42.8817 15.295 47.145 12.7649 51 11.3001L54 25.5C48.313 26.7365 42.8053 28.3263 35.3817 29.5438L44.5611 39.7405Z" fill="#54B6F9"/>
<path d="M92.1815 39.7405C94.0406 41.738 95.5635 43.4882 96.6711 44.7057L84.6065 52.3912L74.0649 35.5933C70.9202 41.1292 67.2019 46.8934 63.0684 53L51.1818 44.135C55.0187 40.0449 58.915 36.2021 63.0684 32.4354C64.6901 30.9706 65.7582 29.9623 66.1537 29.5818C64.8681 29.3536 61.0906 28.5736 54.8605 27.0517C50.3709 25.9293 47.4042 25.2064 46 24.6927L50.7863 11.3001C57.6492 14.0014 63.7606 17.0262 69.1204 20.2032C67.8942 11.9279 67.2613 5.21249 67.2613 0H81.0663C81.0663 3.6906 80.374 10.4821 78.9698 20.3173C80.0378 19.8798 82.2925 18.9286 85.7141 17.3496C90.441 15.295 94.0049 12.7649 98 11.3001L103 24.6927C97.1062 25.9293 90.3619 28.3263 82.6683 29.5438L92.1815 39.7405Z" fill="#54B6F9"/>
<path d="M137.561 39.7405C139.355 41.738 140.824 43.4882 141.893 44.7057L130.252 52.3912L120.08 35.5933C117.046 41.1292 113.458 46.8934 109.469 53L98 44.135C101.702 40.0449 105.462 36.2021 109.469 32.4354C111.034 30.9706 112.065 29.9623 112.447 29.5818C111.206 29.3536 107.561 28.5736 101.55 27.0517C97.2176 25.9293 94.355 25.2064 93 24.6927L97.6183 11.3001C104.24 14.0014 110.137 17.0262 115.309 20.2032C114.126 11.9279 113.515 5.21249 113.515 0H126.836C126.836 3.6906 126.168 10.4821 124.813 20.3173C125.844 19.8798 128.019 18.9286 131.321 17.3496C135.882 15.295 140.099 13.5449 143.954 12.08L148 25.8532C142.313 27.0897 135.805 28.3263 128.382 29.5438L137.561 39.7405Z" fill="#54B6F9"/>
</svg>
